<svg width="20" height="20" viewBox="0 0 20 20" fill="none" xmlns="http://www.w3.org/2000/svg">
<path d="M6.66675 19.1666V15.8333" stroke="#6F7882" stroke-width="1.5" stroke-linecap="round" stroke-linejoin="round"/>
<path d="M13.3333 19.1666V15.8333" stroke="#6F7882" stroke-width="1.5" stroke-linecap="round" stroke-linejoin="round"/>
<path d="M17.5 19.1667L2.5 19.1667" stroke="#6F7882" stroke-width="1.5" stroke-linecap="round" stroke-linejoin="round"/>
<path d="M10 3.95831C11.7258 3.95831 13.125 5.35748 13.125 7.08331C13.125 8.80915 11.7258 10.2083 10 10.2083C8.27417 10.2083 6.875 8.80915 6.875 7.08331C6.875 5.35748 8.27417 3.95831 10 3.95831Z" stroke="#6F7882" stroke-width="1.5" stroke-linecap="round" stroke-linejoin="round"/>
<path d="M9.97925 12.5C9.80675 12.5 9.66675 12.64 9.66675 12.8125C9.66675 12.985 9.80675 13.125 9.97925 13.125C10.1517 13.125 10.2917 12.985 10.2917 12.8125C10.2917 12.64 10.1517 12.5 9.97925 12.5Z" fill="#6F7882" stroke="#6F7882" stroke-width="1.5" stroke-linecap="round" stroke-linejoin="round"/>
<rect x="2.625" y="0.75" width="14.75" height="14.75" rx="3.25" stroke="#6F7882" stroke-width="1.5"/>
</svg>
