<svg width="24" height="25" viewBox="0 0 24 25" fill="none" xmlns="http://www.w3.org/2000/svg">
<path d="M3.89691 4.86531C3.89691 4.86531 2.64014 5.09172 2.64014 6.15624V13.9018C2.64014 18.0439 8.70116 22.6534 10.7614 24.0226C11.172 24.2981 11.7032 24.2981 12.1137 24.0226C14.174 22.6534 20.235 18.0439 20.235 13.9018V6.15624C20.235 5.09172 18.9783 4.86531 18.9783 4.86531L12.1669 2.71257C11.6919 2.56244 11.1832 2.56244 10.7083 2.71257L3.89691 4.86531Z" fill="#F0F0F0"/>
<path d="M5.41984 3.94548C5.44078 3.94158 5.46147 3.93641 5.4818 3.92998L12.2932 1.77724C12.6656 1.65954 13.0644 1.65954 13.4368 1.77724L20.2481 3.92998C20.2685 3.93641 20.2892 3.94158 20.3101 3.94548C20.311 3.94564 20.3118 3.9458 20.3126 3.94595L20.3123 3.94589L20.3116 3.94577L20.3106 3.94558L20.3132 3.94612C20.3175 3.94701 20.3258 3.9488 20.3374 3.9516C20.3609 3.95724 20.3972 3.96681 20.4421 3.98123C20.5338 4.01069 20.6508 4.05716 20.7632 4.12498C20.9873 4.26028 21.1321 4.43513 21.1321 4.70622V12.4518C21.1321 13.3565 20.7994 14.3254 20.2262 15.3145C19.6548 16.3005 18.8637 17.2731 17.9953 18.1751C16.2578 19.9797 14.2609 21.4503 13.2508 22.1215L13.249 22.1228C13.0156 22.2794 12.7143 22.2794 12.481 22.1228L12.4791 22.1215C11.4691 21.4503 9.47208 19.9797 7.73466 18.1751C6.86628 17.2731 6.07512 16.3005 5.50376 15.3145C4.93052 14.3254 4.5979 13.3565 4.5979 12.4518V4.70622C4.5979 4.43513 4.74264 4.26028 4.96677 4.12498C5.07912 4.05716 5.19615 4.01069 5.28782 3.98123C5.3327 3.96681 5.36908 3.95724 5.39251 3.9516C5.40417 3.9488 5.41243 3.94701 5.41673 3.94612L5.41984 3.94548ZM5.41764 3.94589L5.4176 3.94589C5.41763 3.94589 5.41766 3.94589 5.41769 3.94588L5.41764 3.94589Z" stroke="#6F7882" stroke-linecap="round" stroke-linejoin="round"/>
</svg>
