<svg width="22" height="22" viewBox="0 0 22 22" fill="none" xmlns="http://www.w3.org/2000/svg">
<path d="M15.2195 5.6639C15.2195 6.19723 14.8639 6.55279 14.3306 6.55279H7.21946C6.68612 6.55279 6.33057 6.19723 6.33057 5.6639V1.66391C6.33057 1.13058 6.68612 0.775024 7.21946 0.775024H14.3306C14.8639 0.775024 15.2195 1.13058 15.2195 1.66391V5.6639Z" stroke="#6F7882" stroke-width="1.55" stroke-miterlimit="10" stroke-linecap="round" stroke-linejoin="round"/>
<path d="M9.26367 3.44165V3.88609" stroke="#6F7882" stroke-width="1.55" stroke-miterlimit="10" stroke-linecap="round" stroke-linejoin="round"/>
<path d="M12.375 3.44165V3.88609" stroke="#6F7882" stroke-width="1.55" stroke-miterlimit="10" stroke-linecap="round" stroke-linejoin="round"/>
<path d="M14.9192 10.5973C12.6669 12.8195 8.88311 12.8195 6.63086 10.5973" stroke="#6F7882" stroke-width="1.55" stroke-miterlimit="10" stroke-linecap="round" stroke-linejoin="round"/>
<path d="M17.8019 13.4419C13.928 17.2641 7.62168 17.2641 3.7478 13.4419" stroke="#6F7882" stroke-width="1.55" stroke-miterlimit="10" stroke-linecap="round" stroke-linejoin="round"/>
<path d="M20.7749 16.8195C15.1893 22.1528 6.36048 22.0639 0.774902 16.7306" stroke="#6F7882" stroke-width="1.55" stroke-miterlimit="10" stroke-linecap="round" stroke-linejoin="round"/>
</svg>
